<?xml version="1.0" encoding="UTF-8"?>
<svg id="Layer_1" data-name="Layer 1" xmlns="http://www.w3.org/2000/svg" viewBox="0 0 553.49 397.62">
  <defs>
    <style>
      .cls-1 {
        fill: #5e2a02;
      }

      .cls-2 {
        fill: #f4a261;
      }

      .cls-3 {
        fill: #939a57;
      }
    </style>
  </defs>
  <g>
    <g>
      <path class="cls-1" d="M222.52,206.92c-5.06-4.94-11.82-8.9-20.36-11.89s-17.13-4.51-25.78-4.51-18.35,2.13-28.22,6.46c-9.87,4.27-18.29,9.81-25.3,16.52-5.42,5.36-9.81,12.31-13.11,20.97-1.22,3.11-2.25,6.34-3.05,9.57-6.77,27.98,8.96,71.93,42.79,72.23,10.18.12,20.79-2.93,29.69-7.07,9.81-4.51,18.71-10.73,26.88-18.59,8.11-7.86,14.57-16.64,19.32-26.33,4.75-9.69,7.13-19.32,7.13-29.01,0-12.25-3.35-21.7-10-28.34ZM200.64,259.52c-2.68,5.43-6.34,10.36-10.85,14.81-4.57,4.39-9.63,7.92-15.12,10.48-5,2.32-10.97,4.02-16.7,3.96-19.02-.18-27.86-24.93-24.08-40.66.49-1.83,1.04-3.6,1.71-5.36,1.89-4.88,4.33-8.78,7.38-11.76,3.96-3.78,8.72-6.89,14.26-9.33,5.55-2.38,10.79-3.6,15.85-3.6s9.69.85,14.51,2.5c4.82,1.71,8.6,3.9,11.4,6.7,3.78,3.72,5.61,9.08,5.61,15.97,0,5.43-1.28,10.85-3.96,16.27Z"/>
      <path class="cls-1" d="M342.85,109.27c-8.6-14.81-30.17-11.46-43.46-6.64-8.23,2.99-12.68,6.77-17.8,13.71-8.35,11.4-16.03,26.82-23.04,46.26-6.95,19.44-12.62,41.02-16.82,64.67-2.76,15.33-4.71,30.81-5.79,46.35-.53,7.68-.54,15.38-.96,23.06-.34,6.17-.42,11.88,4.69,16.35,6.8,5.95,22.75,4.72,28.88-1.89,2.32-2.32,4.39-8.72,6.22-19.08,1.89-10.42,3.35-23.96,4.51-40.54.15-4.3-.97-6.31,2.92-7.05,7.05-1.33,12.84-.25,19.54-4.17,6.84-4,14.07-12.26,14.86-20.48,1.53-16.05-22.87-9.52-31.57-9.08,1.77-19.29,5.7-37.19,13.38-55.07,2.38-5.53,4.82-10.85,10.38-13.87,4.48-2.43,9.98-2.9,14.8-1.28,2.56.86,4.92,2.28,7.49,3.12,11.21,3.67,14.87-8.66,14.95-17.21.06-5.91-.24-12.07-3.17-17.19Z"/>
      <path class="cls-1" d="M354.3,155.23c-1.46-1.46-3.78-2.19-6.95-2.19-1.83,0-3.35.24-4.51.73-1.16.43-2.32,1.28-3.47,2.38-2.2,2.13-4.14,5.3-5.91,9.63-1.71,4.33-2.62,8.11-2.62,11.4,0,6.58,2.99,9.94,8.96,10.12h.24c2.74,0,5.36-1.16,7.98-3.54,2.62-2.38,4.63-5.42,6.22-9.2,1.52-3.78,2.32-7.8,2.32-12.07,0-3.35-.73-5.79-2.26-7.25ZM350.22,199.55c-2.2-4.39-5.18-6.64-8.84-6.64s-6.22,1.65-8.17,4.88c-4.94,7.8-9.33,20.3-13.23,37.61-2.44,10.79-4.33,21.82-5.24,33.04-.85,10.61-.24,21.27-.31,31.94v.73c0,2.44,0,4.88.49,7.19.43,2.38,1.46,4.63,2.99,5.85,1.52,1.16,3.29,1.34,5.06,1.46,1.77.12,3.53.24,5.3.37,1.34.06,2.68.18,4.08.24,1.59.12,3.29.24,4.69-.91,1.71-1.46,2.32-4.39,2.74-7.01,1.65-9.63,3.35-19.26,5-28.89.67-3.96,2.01-7.31,2.8-11.22.92-4.63,1.77-9.33,2.56-14.08,2.32-14.2,3.47-26.58,3.47-37.18,0-7.13-1.16-12.92-3.41-17.37Z"/>
      <path class="cls-1" d="M487.67,288.78c-.24-1.46-.49-3.47-.73-5.97-.24-2.5-.43-4.69-.49-6.64-.12-1.89-.12-4.75-.12-8.47,0-7.44-.31-13.84,1.04-21.15,1.52-8.47,2.38-17.25.18-25.6-5-19.57-22.67-28.41-41.63-28.41-12.62,0-25.84,4.57-39.5,13.65-13.23,8.84-24.26,19.57-32.98,32.25-5.24,7.74-9.39,15.67-12.37,23.71-2.99,8.11-4.51,15.12-4.51,21.03,0,9.57,3.05,17.49,9.14,23.77,6.1,6.22,13.77,9.33,23.1,9.33,4.57,0,9.63-1.4,15.05-4.33,5.49-2.93,11.46-7.31,17.92-13.11,6.4-5.79,13.53-13.23,21.27-22.31l.49.55c-.12,1.4-.24,3.17-.24,5.36,0,21.46,6.46,32.25,19.26,32.25,4.75,0,9.45-1.16,14.02-3.47,4.57-2.26,9.39-5.85,14.38-10.79-1.52-3.84-2.62-7.68-3.29-11.64ZM449.94,247.21c-5.73,9.69-14.69,17.13-23.47,23.96-6.03,4.69-15.42,11.52-23.29,7.01-4.69-2.62-7.19-8.17-7.31-13.53-.55-15.85,12.86-32.73,23.47-43.28,6.46-6.4,17.01-17.13,26.82-11.15,6.1,3.78,8.84,11.34,8.96,18.53.12,6.77-1.89,12.92-5.18,18.47Z"/>
      <path class="cls-1" d="M202.64,360.09c-22.86,6.77-46.2,7.74-70.1,2.99-25.78-5.06-48.46-16.15-67.97-33.34,6.28-.49,12.43-2.19,17.92-5.06-7.13,1.16-14.2,1.95-21.27,2.07-.06-.06-.12-.12-.18-.18-7.13-6.83-12.98-14.63-17.49-23.28,8.05,1.22,16.52.24,23.96-2.74-8.6.49-17.07.49-25.48-.37-2.19-4.51-4.02-9.26-5.49-14.2-.18-.61-.37-1.28-.49-1.89,8.41.79,17.01-.73,24.44-4.39-8.53,1.1-16.82,1.71-25.23,1.46-2.13-8.35-3.29-16.76-3.6-25.11,8.17,2.26,17.07,2.13,25.11-.24-8.53-.24-16.88-1.1-25.17-2.68-.06-5,.24-10,.85-15.06.43-3.29.91-6.52,1.58-9.75,7.62,3.41,16.21,4.75,24.32,3.78-8.17-1.71-16.09-3.78-23.77-6.7,1.89-8.66,4.63-17.07,8.23-25.17,5.85,2.32,12.19,3.41,18.35,3.17-5.91-1.71-11.58-3.66-17.13-5.97.73-1.65,1.52-3.29,2.38-4.94,11.28-22.31,27.67-41.45,49.07-57.48,7.19-5.43,14.63-10.36,22.37-14.87,5.97-3.54,12.25-7.19,18.71-9.69,1.4,6.52-5.61,11.09-9.39,15.48-5.49,6.34-10.55,12.98-15.3,19.87-9.14,13.29-16.82,27.55-22.92,42.55-9.14,22.55-15.06,46.39-12.37,70.89,2.13,19.02,8.53,36.51,19.26,52.48,8.96,14.32,20.85,26.27,35.35,35.05,19.38,11.7,42.12,16.46,64.67,14.2,2.26-.18,4.51-.49,6.77-.85Z"/>
    </g>
    <path class="cls-3" d="M138.58,110.39s8.37,47.56-14.82,71.51c0,0,34.64-5.62,34.2-27.22-.44-21.6-9.81-35.67-19.38-44.29Z"/>
    <path class="cls-3" d="M141.61,110.49s48.52,34,49.19,74.89c0,0,25.18-34.93,6.05-53.29-19.12-18.35-39.45-22.44-55.24-21.61Z"/>
    <path class="cls-3" d="M141.61,107.65s59.22,1.74,82.25,35.54c0,0,1.84-43.02-24.23-47.84-26.06-4.82-45.29,2.94-58.02,12.3Z"/>
    <path class="cls-3" d="M135.82,108.55s-47.85,6.5-63.61,35.88c0,0-5.19-34.71,15.52-40.86,20.71-6.15,36.97-1.51,48.09,4.98Z"/>
    <path class="cls-3" d="M136.63,107.61s-47.15-35.87-86.31-24.06c0,0,25.61-34.61,48.92-21.98,23.3,12.63,33.38,30.75,37.39,46.04Z"/>
    <path class="cls-3" d="M138.69,104.53s-18.23-56.37-57.12-69.03c0,0,40.79-13.79,52.71,9.88,11.92,23.68,9.85,44.31,4.41,59.15Z"/>
    <path class="cls-3" d="M140.17,105.57s17.11-62.74,51.87-72.11c0,0,1.43,34.25-51.87,72.11Z"/>
  </g>
  <g>
    <path class="cls-2" d="M158.92,324.55c1.65,1.33,2.72,3.12,3.21,5.38h-5.07c-.37-.91-.95-1.63-1.72-2.16-.78-.52-1.69-.78-2.76-.78-1.4,0-2.53.51-3.39,1.54-.86,1.03-1.29,2.4-1.29,4.12s.43,3.09,1.29,4.1c.86,1.02,1.99,1.53,3.39,1.53,1.06,0,1.98-.26,2.76-.78.77-.52,1.35-1.23,1.72-2.13h5.07c-.49,2.24-1.55,4.03-3.21,5.36-1.65,1.34-3.74,2-6.26,2-1.92,0-3.61-.42-5.07-1.27-1.46-.85-2.58-2.04-3.38-3.57-.79-1.53-1.19-3.28-1.19-5.24s.4-3.71,1.19-5.24c.79-1.53,1.92-2.72,3.38-3.57,1.46-.85,3.15-1.27,5.07-1.27,2.52,0,4.61.66,6.26,1.99Z"/>
    <path class="cls-2" d="M179.32,323.75c1.52.87,2.72,2.07,3.6,3.61.88,1.54,1.32,3.28,1.32,5.22s-.44,3.69-1.33,5.24c-.89,1.55-2.09,2.76-3.61,3.63-1.52.87-3.21,1.3-5.06,1.3s-3.53-.43-5.06-1.3c-1.52-.87-2.73-2.08-3.61-3.63-.89-1.55-1.33-3.3-1.33-5.24s.44-3.68,1.33-5.22c.89-1.54,2.09-2.75,3.61-3.61,1.52-.87,3.21-1.3,5.06-1.3s3.56.43,5.08,1.3ZM170.49,328.43c-.92,1.02-1.39,2.41-1.39,4.16s.46,3.12,1.39,4.15c.92,1.03,2.17,1.54,3.74,1.54s2.79-.51,3.73-1.54c.93-1.03,1.4-2.41,1.4-4.15s-.46-3.12-1.39-4.15-2.17-1.54-3.74-1.54-2.82.51-3.74,1.53Z"/>
    <path class="cls-2" d="M199.84,322.75v3.81h-8.12v4.34h6.27v3.64h-6.27v8.01h-4.79v-19.81h12.91Z"/>
    <path class="cls-2" d="M207.09,322.75v19.81h-4.79v-19.81h4.79Z"/>
    <path class="cls-2" d="M222.67,338.95h-7.42l-1.23,3.61h-5.04l7.26-19.66h5.52l7.26,19.66h-5.1l-1.23-3.61ZM221.43,335.3l-2.47-7.28-2.49,7.28h4.96Z"/>
    <path class="cls-2" d="M247.32,330.74v3.98h-12.35v-3.98h12.35Z"/>
    <path class="cls-2" d="M264.24,340c-.47.83-1.18,1.5-2.13,2-.95.5-2.12.76-3.5.76s-2.55-.24-3.61-.71c-1.06-.48-1.91-1.14-2.55-2-.63-.86-1-1.85-1.09-2.97h3.42c.09.86.46,1.6,1.11,2.21.64.62,1.51.92,2.59.92.97,0,1.72-.26,2.26-.79.53-.52.8-1.19.8-2.02,0-.71-.2-1.29-.59-1.75-.39-.46-.88-.82-1.46-1.08s-1.37-.56-2.38-.9c-1.23-.39-2.24-.78-3.01-1.18-.78-.39-1.43-.96-1.98-1.71-.54-.75-.81-1.73-.81-2.94,0-1.06.26-2,.78-2.8.52-.8,1.27-1.42,2.24-1.86s2.09-.66,3.36-.66c2.02,0,3.62.49,4.8,1.46,1.19.97,1.86,2.24,2.03,3.81h-3.45c-.13-.75-.48-1.39-1.05-1.92-.57-.53-1.35-.8-2.34-.8-.9,0-1.62.23-2.16.69-.54.46-.81,1.12-.81,1.97,0,.67.19,1.23.56,1.67.37.44.84.78,1.41,1.04.57.25,1.35.55,2.34.88,1.25.39,2.27.79,3.07,1.19.79.4,1.47.98,2.02,1.75.55.77.83,1.77.83,3.03,0,.97-.23,1.87-.7,2.7Z"/>
    <path class="cls-2" d="M271.32,322.78v19.78h-3.19v-19.78h3.19Z"/>
    <path class="cls-2" d="M295.7,323.09v19.47h-3.22v-14.59l-5.63,14.59h-2.8l-5.66-14.59v14.59h-3.19v-19.47h3.87l6.44,15.55,6.33-15.55h3.87Z"/>
    <path class="cls-2" d="M302.73,334.88v7.68h-3.19v-19.78h6.72c2.28,0,3.99.54,5.14,1.63,1.15,1.08,1.72,2.57,1.72,4.45s-.59,3.34-1.76,4.41c-1.18,1.07-2.88,1.61-5.1,1.61h-3.53ZM309.87,328.86c0-1.12-.31-1.97-.94-2.56-.63-.59-1.63-.88-3.01-.88h-3.19v6.86h3.19c2.63,0,3.95-1.14,3.95-3.42Z"/>
    <path class="cls-2" d="M319.11,340.07h6.84v2.49h-10.03v-19.78h3.19v17.28Z"/>
    <path class="cls-2" d="M343.37,322.78l-6.58,12.58v7.2h-3.22v-7.2l-6.61-12.58h3.7l4.54,9.16,4.54-9.16h3.64Z"/>
    <path class="cls-2" d="M367.18,324.43c1.61,1.23,2.69,2.9,3.25,5.01h-3.39c-.47-1.19-1.21-2.14-2.23-2.84-1.02-.7-2.26-1.05-3.74-1.05-1.18,0-2.23.29-3.15.87-.92.58-1.65,1.41-2.18,2.48-.53,1.07-.8,2.33-.8,3.77s.27,2.67.8,3.74c.53,1.07,1.26,1.9,2.18,2.48.92.58,1.98.87,3.15.87,1.47,0,2.72-.35,3.74-1.05,1.02-.7,1.76-1.64,2.23-2.82h3.39c-.56,2.11-1.64,3.78-3.25,5s-3.62,1.83-6.05,1.83c-1.87,0-3.52-.42-4.96-1.27-1.44-.85-2.55-2.03-3.33-3.56-.78-1.52-1.18-3.26-1.18-5.22s.39-3.7,1.18-5.23c.78-1.52,1.9-2.71,3.33-3.57s3.09-1.29,4.96-1.29c2.43,0,4.44.62,6.05,1.85Z"/>
    <path class="cls-2" d="M387.76,323.82c1.48.86,2.65,2.06,3.5,3.6.85,1.54,1.27,3.28,1.27,5.22s-.43,3.68-1.27,5.23c-.85,1.54-2.02,2.74-3.5,3.61s-3.14,1.3-4.97,1.3-3.52-.43-5-1.3c-1.48-.87-2.66-2.07-3.52-3.61-.86-1.54-1.29-3.28-1.29-5.23s.43-3.68,1.29-5.22c.86-1.54,2.03-2.74,3.52-3.6,1.48-.86,3.15-1.29,5-1.29s3.49.43,4.97,1.29ZM379.4,326.37c-.99.58-1.76,1.41-2.31,2.49-.55,1.08-.83,2.34-.83,3.78s.28,2.7.83,3.78c.55,1.08,1.32,1.91,2.31,2.49.99.58,2.12.87,3.39.87s2.37-.29,3.35-.87,1.75-1.41,2.3-2.49c.55-1.08.83-2.34.83-3.78s-.28-2.7-.83-3.78c-.55-1.08-1.32-1.91-2.3-2.49s-2.1-.87-3.35-.87-2.4.29-3.39.87Z"/>
    <path class="cls-2" d="M410.63,324.43c1.61,1.23,2.69,2.9,3.25,5.01h-3.39c-.47-1.19-1.21-2.14-2.23-2.84-1.02-.7-2.26-1.05-3.74-1.05-1.18,0-2.23.29-3.15.87-.92.58-1.65,1.41-2.18,2.48-.53,1.07-.8,2.33-.8,3.77s.27,2.67.8,3.74c.53,1.07,1.26,1.9,2.18,2.48.92.58,1.98.87,3.15.87,1.47,0,2.72-.35,3.74-1.05,1.02-.7,1.76-1.64,2.23-2.82h3.39c-.56,2.11-1.64,3.78-3.25,5s-3.62,1.83-6.05,1.83c-1.87,0-3.52-.42-4.96-1.27-1.44-.85-2.55-2.03-3.33-3.56-.78-1.52-1.18-3.26-1.18-5.22s.39-3.7,1.18-5.23c.78-1.52,1.9-2.71,3.33-3.57s3.09-1.29,4.96-1.29c2.43,0,4.44.62,6.05,1.85Z"/>
    <path class="cls-2" d="M431.21,323.82c1.48.86,2.65,2.06,3.5,3.6.85,1.54,1.27,3.28,1.27,5.22s-.43,3.68-1.27,5.23c-.85,1.54-2.02,2.74-3.5,3.61s-3.14,1.3-4.97,1.3-3.52-.43-5-1.3c-1.48-.87-2.66-2.07-3.52-3.61-.86-1.54-1.29-3.28-1.29-5.23s.43-3.68,1.29-5.22c.86-1.54,2.03-2.74,3.52-3.6,1.48-.86,3.15-1.29,5-1.29s3.49.43,4.97,1.29ZM422.85,326.37c-.99.58-1.76,1.41-2.31,2.49-.55,1.08-.83,2.34-.83,3.78s.28,2.7.83,3.78c.55,1.08,1.32,1.91,2.31,2.49.99.58,2.12.87,3.39.87s2.37-.29,3.35-.87,1.75-1.41,2.3-2.49c.55-1.08.83-2.34.83-3.78s-.28-2.7-.83-3.78c-.55-1.08-1.32-1.91-2.3-2.49s-2.1-.87-3.35-.87-2.4.29-3.39.87Z"/>
    <path class="cls-2" d="M455.2,342.56h-3.19l-9.61-14.59v14.59h-3.19v-19.75h3.19l9.61,14.65v-14.65h3.19v19.75Z"/>
    <path class="cls-2" d="M462.12,322.78v11.74c0,1.76.39,3.06,1.16,3.92.77.86,1.86,1.29,3.26,1.29s2.46-.43,3.24-1.29c.77-.86,1.16-2.17,1.16-3.92v-11.74h3.19v11.74c0,2.71-.7,4.76-2.1,6.15-1.4,1.39-3.25,2.09-5.55,2.09s-4.11-.7-5.49-2.09c-1.38-1.39-2.07-3.44-2.07-6.15v-11.74h3.19Z"/>
    <path class="cls-2" d="M490.58,322.78v2.58h-5.52v17.2h-3.22v-17.2h-5.49v-2.58h14.23Z"/>
  </g>
  <g>
    <path class="cls-1" d="M502.77,190.11v2.94h-4.16v12.36h-3.72v-12.36h-4.11v-2.94h11.99Z"/>
    <path class="cls-1" d="M521.54,190.21v15.2h-3.7v-9.5l-3.29,9.5h-3.2l-3.31-9.53v9.53h-3.7v-15.2h4.52l4.13,10.59,4.05-10.59h4.5Z"/>
  </g>
</svg>